<svg width="32" height="32" viewBox="0 0 32 32" fill="none" xmlns="http://www.w3.org/2000/svg">
<g clip-path="url(#clip0_6164_29556)">
<path d="M16.9985 28H18.9985V31L22.9985 28H28.9985C29.529 28 30.0377 27.7893 30.4127 27.4142C30.7878 27.0391 30.9985 26.5304 30.9985 26V20C30.9985 19.4696 30.7878 18.9609 30.4127 18.5858C30.0377 18.2107 29.529 18 28.9985 18H16.9985C16.4681 18 15.9594 18.2107 15.5843 18.5858C15.2092 18.9609 14.9985 19.4696 14.9985 20V26C14.9985 26.5304 15.2092 27.0391 15.5843 27.4142C15.9594 27.7893 16.4681 28 16.9985 28V28Z" stroke="#006BFF" stroke-width="2" stroke-linecap="round" stroke-linejoin="round"/>
<path d="M3.13037 22.5C3.13037 23.4283 3.49912 24.3185 4.1555 24.9749C4.81187 25.6313 5.70211 26 6.63037 26C7.55863 26 8.44887 25.6313 9.10525 24.9749C9.76162 24.3185 10.1304 23.4283 10.1304 22.5C10.1304 21.5717 9.76162 20.6815 9.10525 20.0251C8.44887 19.3687 7.55863 19 6.63037 19C5.70211 19 4.81187 19.3687 4.1555 20.0251C3.49912 20.6815 3.13037 21.5717 3.13037 22.5V22.5Z" stroke="#006BFF" stroke-width="2" stroke-linecap="round" stroke-linejoin="round"/>
<path d="M12.2663 31C11.8587 29.831 11.0975 28.8179 10.0882 28.101C9.07893 27.3841 7.87162 26.9989 6.63364 26.9989C5.39567 26.9989 4.18836 27.3841 3.17909 28.101C2.16983 28.8179 1.40861 29.831 1.00098 31" stroke="#006BFF" stroke-width="2" stroke-linecap="round" stroke-linejoin="round"/>
<path d="M21.8652 5.5C21.8652 6.42826 22.234 7.3185 22.8904 7.97487C23.5467 8.63125 24.437 9 25.3652 9C26.2935 9 27.1837 8.63125 27.8401 7.97487C28.4965 7.3185 28.8652 6.42826 28.8652 5.5C28.8652 4.57174 28.4965 3.6815 27.8401 3.02513C27.1837 2.36875 26.2935 2 25.3652 2C24.437 2 23.5467 2.36875 22.8904 3.02513C22.234 3.6815 21.8652 4.57174 21.8652 5.5V5.5Z" stroke="#006BFF" stroke-width="2" stroke-linecap="round" stroke-linejoin="round"/>
<path d="M30.9987 14C30.5911 12.831 29.8299 11.8179 28.8206 11.101C27.8114 10.3841 26.604 9.9989 25.3661 9.9989C24.1281 9.9989 22.9208 10.3841 21.9115 11.101C20.9023 11.8179 20.141 12.831 19.7334 14" stroke="#006BFF" stroke-width="2" stroke-linecap="round" stroke-linejoin="round"/>
<path d="M21.9985 21H26.9985" stroke="#006BFF" stroke-width="2" stroke-linecap="round" stroke-linejoin="round"/>
<path d="M18.9985 24H26.9985" stroke="#006BFF" stroke-width="2" stroke-linecap="round" stroke-linejoin="round"/>
<path d="M14.9985 11H12.9985V14L8.99854 11H2.99854C2.4681 11 1.95939 10.7893 1.58432 10.4142C1.20925 10.0391 0.998535 9.53043 0.998535 9V3C0.998535 2.46957 1.20925 1.96086 1.58432 1.58579C1.95939 1.21071 2.4681 1 2.99854 1H14.9985C15.529 1 16.0377 1.21071 16.4127 1.58579C16.7878 1.96086 16.9985 2.46957 16.9985 3V9C16.9985 9.53043 16.7878 10.0391 16.4127 10.4142C16.0377 10.7893 15.529 11 14.9985 11V11Z" stroke="#006BFF" stroke-width="2" stroke-linecap="round" stroke-linejoin="round"/>
<path d="M9.99854 4H4.99854" stroke="#006BFF" stroke-width="2" stroke-linecap="round" stroke-linejoin="round"/>
<path d="M12.9985 7H4.99854" stroke="#006BFF" stroke-width="2" stroke-linecap="round" stroke-linejoin="round"/>
</g>
<defs>
<clipPath id="clip0_6164_29556">
<rect width="32" height="32" fill="white"/>
</clipPath>
</defs>
</svg>
